<?xml version="1.0" encoding="utf-8"?>
<!-- Generator: Adobe Illustrator 18.1.1, SVG Export Plug-In . SVG Version: 6.00 Build 0)  -->
<svg version="1.1" xmlns="http://www.w3.org/2000/svg" xmlns:xlink="http://www.w3.org/1999/xlink" x="0px" y="0px"
	 viewBox="0 0 192 192" enable-background="new 0 0 192 192" xml:space="preserve">
<g id="レイヤー_1" display="none">
	<g display="inline">
		<defs>
			<rect id="SVGID_1_" width="192" height="192"/>
		</defs>
		<clipPath id="SVGID_2_">
			<use xlink:href="#SVGID_1_"  overflow="visible"/>
		</clipPath>
		<path clip-path="url(#SVGID_2_)" fill="none" stroke="#979797" stroke-width="0.75" stroke-miterlimit="10" d="M0,192L192,0L0,192
			z"/>
		
			<line clip-path="url(#SVGID_2_)" fill="none" stroke="#979797" stroke-width="0.75" stroke-miterlimit="10" x1="0" y1="0" x2="192" y2="192"/>
		
			<line clip-path="url(#SVGID_2_)" fill="none" stroke="#979797" stroke-width="0.75" stroke-linecap="square" stroke-miterlimit="10" x1="0" y1="68" x2="192" y2="68"/>
		
			<line clip-path="url(#SVGID_2_)" fill="none" stroke="#979797" stroke-width="0.75" stroke-linecap="square" stroke-miterlimit="10" x1="0" y1="124" x2="192" y2="124"/>
		
			<line clip-path="url(#SVGID_2_)" fill="none" stroke="#979797" stroke-width="0.75" stroke-linecap="square" stroke-miterlimit="10" x1="0" y1="96" x2="192" y2="96"/>
		
			<line clip-path="url(#SVGID_2_)" fill="none" stroke="#979797" stroke-width="0.75" stroke-miterlimit="10" x1="124" y1="192" x2="124" y2="0"/>
		
			<line clip-path="url(#SVGID_2_)" fill="none" stroke="#979797" stroke-width="0.75" stroke-miterlimit="10" x1="68" y1="192" x2="68" y2="0"/>
		
			<line clip-path="url(#SVGID_2_)" fill="none" stroke="#979797" stroke-width="0.75" stroke-miterlimit="10" x1="96" y1="192" x2="96" y2="0"/>
		
			<circle clip-path="url(#SVGID_2_)" fill="none" stroke="#979797" stroke-width="0.75" stroke-miterlimit="10" cx="96" cy="96" r="40"/>
		<path clip-path="url(#SVGID_2_)" fill="none" stroke="#979797" stroke-width="0.75" stroke-miterlimit="10" d="M96,184
			c-48.6,0-88-39.4-88-88S47.4,8,96,8s88,39.4,88,88S144.6,184,96,184"/>
		<path clip-path="url(#SVGID_2_)" fill="none" stroke="#979797" stroke-width="0.75" stroke-miterlimit="10" d="M160,172H32
			c-6.6,0-12-5.4-12-12V32c0-6.6,5.4-12,12-12h128c6.6,0,12,5.4,12,12v128C172,166.6,166.6,172,160,172"/>
		<path clip-path="url(#SVGID_2_)" fill="none" stroke="#979797" stroke-width="0.75" stroke-miterlimit="10" d="M148,184H44
			c-6.6,0-12-5.4-12-12V20c0-6.6,5.4-12,12-12h104c6.6,0,12,5.4,12,12v152C160,178.6,154.6,184,148,184"/>
		<path clip-path="url(#SVGID_2_)" fill="none" stroke="#979797" stroke-width="0.75" stroke-miterlimit="10" d="M172,160H20
			c-6.6,0-12-5.4-12-12V44c0-6.6,5.4-12,12-12h152c6.6,0,12,5.4,12,12v104C184,154.6,178.6,160,172,160"/>
	</g>
</g>
<g id="レイヤー_2">
	<path fill="#4A4A4A" d="M171.3,49.4c0-0.1,0.1-0.1,0.1-0.1c-4.4,2-9.1,3.4-14,4.3c-1.2,0.2-2.4,0.4-3.6,0.5c5-3,9-7.5,11.6-12.7
		c0.7-1.4,1.4-2.7,1.9-4.2c0,0-0.1,0-0.1,0.1c0,0,0-0.1,0.1-0.1c-6,3.5-12.6,6.1-19.6,7.5c-5.6-6-13.7-9.8-22.6-9.8
		C107.9,34.7,94,48.6,94,65.7c0,2.2,0.3,4.3,0.7,6.4c0,0.2,0.1,0.4,0.1,0.6C72.4,71.6,52.1,62,37.2,47.1c-2.1-2.1-4.1-4.3-6-6.7
		c0,0,0,0,0,0c0,0,0,0-0.1-0.1c-2.7,4.6-4.2,9.9-4.2,15.6c0,8.8,3.7,16.7,9.6,22.4c1.2,1.2,2.6,2.4,4,3.4c-5-0.2-9.7-1.6-13.9-3.9
		c0,0.1,0,0.3,0,0.4c0,12.5,7.4,23.1,18,28c2.1,1,4.3,1.8,6.6,2.3c-2.5,0.7-5.2,1.1-8,1.1c-1.6,0-3.2-0.2-4.7-0.4
		c-0.3-0.1-0.7-0.1-1-0.2c0,0,0,0,0,0c0,0-0.1,0-0.1,0c3.4,10.8,12.6,19,24,21c1.6,0.3,3.2,0.5,4.9,0.5
		c-10.6,8.3-23.9,13.2-38.3,13.2c-2.1,0-4.1-0.2-6.2-0.4c-0.4-0.1-0.8-0.1-1.2-0.2c0.1,0,0.1,0.1,0.2,0.1c-0.1,0-0.1,0-0.2,0
		c13.7,8.8,30,13.9,47.4,13.9c27.8,0,49.5-11.3,64.4-27.6c0.1-0.1,0.3-0.3,0.4-0.4c1.6-1.8,3.1-3.6,4.6-5.5c0.3-0.5,0.7-0.9,1-1.4
		c1.2-1.7,2.4-3.4,3.5-5.1c0.4-0.7,0.9-1.4,1.3-2.1c1-1.6,1.9-3.3,2.7-5c0.4-0.8,0.8-1.5,1.2-2.3c0.9-1.8,1.7-3.6,2.4-5.5
		c0.2-0.6,0.5-1.2,0.7-1.9c0.8-2.2,1.6-4.5,2.3-6.8c0.1-0.2,0.1-0.4,0.2-0.5c2.3-8,3.5-16.1,3.5-24c0-1.3,0-2.7-0.1-4
		c4.8-3.5,9.1-7.6,12.7-12.3c1-1.2,1.9-2.4,2.8-3.6C171.4,49.3,171.3,49.4,171.3,49.4z"/>
</g>
</svg>
