<?xml version="1.0" encoding="utf-8"?>
<!-- Generator: Adobe Illustrator 18.1.1, SVG Export Plug-In . SVG Version: 6.00 Build 0)  -->
<svg version="1.1" xmlns="http://www.w3.org/2000/svg" xmlns:xlink="http://www.w3.org/1999/xlink" x="0px" y="0px"
	 viewBox="0 0 192 192" enable-background="new 0 0 192 192" xml:space="preserve">
<g id="レイヤー_1" display="none">
	<g display="inline">
		<defs>
			<rect id="SVGID_1_" width="192" height="192"/>
		</defs>
		<clipPath id="SVGID_2_">
			<use xlink:href="#SVGID_1_"  overflow="visible"/>
		</clipPath>
		<path clip-path="url(#SVGID_2_)" fill="none" stroke="#979797" stroke-width="0.75" stroke-miterlimit="10" d="M0,192L192,0L0,192
			z"/>
		
			<line clip-path="url(#SVGID_2_)" fill="none" stroke="#979797" stroke-width="0.75" stroke-miterlimit="10" x1="0" y1="0" x2="192" y2="192"/>
		
			<line clip-path="url(#SVGID_2_)" fill="none" stroke="#979797" stroke-width="0.75" stroke-linecap="square" stroke-miterlimit="10" x1="0" y1="68" x2="192" y2="68"/>
		
			<line clip-path="url(#SVGID_2_)" fill="none" stroke="#979797" stroke-width="0.75" stroke-linecap="square" stroke-miterlimit="10" x1="0" y1="124" x2="192" y2="124"/>
		
			<line clip-path="url(#SVGID_2_)" fill="none" stroke="#979797" stroke-width="0.75" stroke-linecap="square" stroke-miterlimit="10" x1="0" y1="96" x2="192" y2="96"/>
		
			<line clip-path="url(#SVGID_2_)" fill="none" stroke="#979797" stroke-width="0.75" stroke-miterlimit="10" x1="124" y1="192" x2="124" y2="0"/>
		
			<line clip-path="url(#SVGID_2_)" fill="none" stroke="#979797" stroke-width="0.75" stroke-miterlimit="10" x1="68" y1="192" x2="68" y2="0"/>
		
			<line clip-path="url(#SVGID_2_)" fill="none" stroke="#979797" stroke-width="0.75" stroke-miterlimit="10" x1="96" y1="192" x2="96" y2="0"/>
		
			<circle clip-path="url(#SVGID_2_)" fill="none" stroke="#979797" stroke-width="0.75" stroke-miterlimit="10" cx="96" cy="96" r="40"/>
		<path clip-path="url(#SVGID_2_)" fill="none" stroke="#979797" stroke-width="0.75" stroke-miterlimit="10" d="M96,184
			c-48.6,0-88-39.4-88-88S47.4,8,96,8s88,39.4,88,88S144.6,184,96,184"/>
		<path clip-path="url(#SVGID_2_)" fill="none" stroke="#979797" stroke-width="0.75" stroke-miterlimit="10" d="M160,172H32
			c-6.6,0-12-5.4-12-12V32c0-6.6,5.4-12,12-12h128c6.6,0,12,5.4,12,12v128C172,166.6,166.6,172,160,172"/>
		<path clip-path="url(#SVGID_2_)" fill="none" stroke="#979797" stroke-width="0.75" stroke-miterlimit="10" d="M148,184H44
			c-6.6,0-12-5.4-12-12V20c0-6.6,5.4-12,12-12h104c6.6,0,12,5.4,12,12v152C160,178.6,154.6,184,148,184"/>
		<path clip-path="url(#SVGID_2_)" fill="none" stroke="#979797" stroke-width="0.75" stroke-miterlimit="10" d="M172,160H20
			c-6.6,0-12-5.4-12-12V44c0-6.6,5.4-12,12-12h152c6.6,0,12,5.4,12,12v104C184,154.6,178.6,160,172,160"/>
	</g>
</g>
<g id="レイヤー_2">
	<path fill="#4A4A4A" d="M79.9,55.8v19.9H56.8h-0.1l0,0h-0.1v26.9h23.3v69.1h27.8v-69.1h23.2l3.1-23.8l0.4-3h0l0-0.1h-26.7V58.5
		c0-7.8,2.2-13.1,13.3-13.1l14.3,0V21.3c-2.5-0.3-10.9-1.1-20.8-1.1C94,20.2,79.9,32.8,79.9,55.8z"/>
</g>
</svg>
